<svg width="100" height="100" viewBox="0 0 100 100" fill="none" xmlns="http://www.w3.org/2000/svg">
<g clip-path="url(#clip0)">
<path d="M99.8072 54.6191C98.9094 45.5881 94.8747 37.0741 88.4461 30.6453C82.9523 25.1517 76.2279 21.6214 69.1524 20.0516V15.089C72.0423 14.3701 74.1904 11.7542 74.1904 8.645C74.1904 4.98322 71.2115 2.00427 67.5497 2.00427H53.487C49.8252 2.00427 46.8462 4.98322 46.8462 8.645C46.8462 11.754 48.9943 14.3699 51.884 15.089V20.0655C44.8302 21.6419 38.1281 25.1673 32.6499 30.6455C31.4511 31.8444 30.3456 33.102 29.3337 34.4091C29.2846 34.4054 29.2356 34.4016 29.1856 34.4016H15.2672C14.1887 34.4016 13.3141 35.2761 13.3141 36.3548C13.3141 37.4335 14.1887 38.308 15.2672 38.308H26.676C25.2439 40.7055 24.0892 43.2233 23.2103 45.8151H1.95316C0.874623 45.8151 0 46.6895 0 47.7683C0 48.847 0.874623 49.7214 1.95316 49.7214H22.1066C21.5437 52.1924 21.2206 54.707 21.1372 57.2288H12.5002C11.4217 57.2288 10.547 58.1032 10.547 59.1819C10.547 60.2606 11.4217 61.1351 12.5002 61.1351H21.1996C21.3644 63.6632 21.7708 66.1781 22.4191 68.6424H9.76578C8.68725 68.6424 7.81262 69.5168 7.81262 70.5956C7.81262 71.6743 8.68725 72.5487 9.76578 72.5487H23.6656C25.5817 77.6174 28.576 82.368 32.6499 86.4419C39.0848 92.8768 47.6076 96.9124 56.648 97.8056C57.9382 97.9329 59.2294 97.996 60.5189 97.996C68.1405 97.996 75.6652 95.7903 82.0501 91.6324C82.954 91.0437 83.2097 89.8338 82.621 88.9298C82.0323 88.0259 80.8224 87.7702 79.9184 88.3589C65.9422 97.46 47.2246 95.4922 35.4121 83.6797C21.5521 69.8198 21.5521 47.2681 35.4121 33.4079C49.2719 19.5481 71.8236 19.5481 85.6838 33.4079C97.4806 45.2049 99.4592 63.9066 90.3881 77.8759C89.8006 78.7807 90.0579 79.9904 90.9624 80.5778C91.8675 81.1653 93.0768 80.908 93.6642 80.0033C98.5107 72.5393 100.692 63.5246 99.8072 54.6191ZM50.7526 8.6452C50.7526 7.13736 51.9791 5.91078 53.487 5.91078H67.5497C69.0575 5.91078 70.2841 7.13736 70.2841 8.6452C70.2841 10.153 69.0575 11.3796 67.5497 11.3796H67.1993H53.8372H53.487C51.9791 11.3796 50.7526 10.1528 50.7526 8.6452ZM55.7903 19.394V15.2859H65.2461V19.387C62.1062 19.0135 58.9296 19.0159 55.7903 19.394Z" fill="white"/>
<path d="M87.0657 83.1068C86.55 83.1068 86.0481 83.3158 85.685 83.6791C85.3198 84.0424 85.1125 84.5463 85.1125 85.0599C85.1125 85.5736 85.3198 86.0775 85.685 86.4408C86.0481 86.806 86.5502 87.0131 87.0657 87.0131C87.5793 87.0131 88.0813 86.806 88.4465 86.4408C88.8098 86.0775 89.0188 85.5736 89.0188 85.0599C89.0188 84.5463 88.81 84.0424 88.4465 83.6791C88.0813 83.3158 87.5792 83.1068 87.0657 83.1068Z" fill="white"/>
<path d="M60.5479 28.2444C43.841 28.2444 30.2488 41.8364 30.2488 58.5435C30.2488 75.2506 43.841 88.8426 60.5479 88.8426C77.2548 88.8426 90.847 75.2506 90.847 58.5435C90.847 41.8364 77.2548 28.2444 60.5479 28.2444ZM60.5479 84.9363C45.9947 84.9363 34.1551 73.0965 34.1551 58.5435C34.1551 43.9905 45.9947 32.1507 60.5479 32.1507C75.101 32.1507 86.9407 43.9905 86.9407 58.5435C86.9407 73.0965 75.101 84.9363 60.5479 84.9363Z" fill="white"/>
<path d="M72.9028 43.4264L63.2289 53.1002C62.4199 52.7002 61.5099 52.4742 60.548 52.4742C59.5858 52.4742 58.6761 52.7002 57.8671 53.1002L53.5375 48.7706C52.7746 48.0079 51.5383 48.0079 50.7752 48.7706C50.0124 49.5333 50.0124 50.7701 50.7752 51.5328L55.1047 55.8623C54.7045 56.6713 54.4787 57.5813 54.4787 58.5432C54.4787 61.8898 57.2012 64.6125 60.548 64.6125C63.8947 64.6125 66.6172 61.8898 66.6172 58.5432C66.6172 57.5813 66.3912 56.6713 65.9912 55.8623L75.3812 46.4723L75.665 46.1886C76.4277 45.4258 76.4277 44.1891 75.665 43.4264C74.9023 42.6637 73.6659 42.6637 72.9028 43.4264ZM60.548 60.7064C59.3554 60.7064 58.385 59.736 58.385 58.5434C58.385 57.3508 59.3554 56.3805 60.548 56.3805C61.7406 56.3805 62.7109 57.3508 62.7109 58.5434C62.7109 59.736 61.7406 60.7064 60.548 60.7064Z" fill="white"/>
<path d="M81.4309 56.6141H79.6213C78.5428 56.6141 77.6682 57.4885 77.6682 58.5673C77.6682 59.646 78.5428 60.5204 79.6213 60.5204H81.4309C82.5094 60.5204 83.384 59.646 83.384 58.5673C83.384 57.4885 82.5094 56.6141 81.4309 56.6141Z" fill="white"/>
<path d="M41.4744 56.5665H39.665C38.5865 56.5665 37.7119 57.4409 37.7119 58.5197C37.7119 59.5984 38.5865 60.4728 39.665 60.4728H41.4744C42.5529 60.4728 43.4275 59.5984 43.4275 58.5197C43.4275 57.4409 42.5529 56.5665 41.4744 56.5665Z" fill="white"/>
<path d="M60.5718 41.423C61.6503 41.423 62.5249 40.5486 62.5249 39.4699V37.6605C62.5249 36.5818 61.6503 35.7074 60.5718 35.7074C59.4933 35.7074 58.6187 36.5818 58.6187 37.6605V39.4699C58.6187 40.5486 59.4933 41.423 60.5718 41.423Z" fill="white"/>
<path d="M60.5242 75.6638C59.4457 75.6638 58.571 76.5382 58.571 77.6169V79.4263C58.571 80.505 59.4457 81.3794 60.5242 81.3794C61.6027 81.3794 62.4773 80.505 62.4773 79.4263V77.6169C62.4773 76.5382 61.6027 75.6638 60.5242 75.6638Z" fill="white"/>
<path d="M1.95312 68.6417C1.43945 68.6417 0.935547 68.8507 0.572266 69.214C0.208984 69.5773 0 70.0812 0 70.5948C0 71.1105 0.208789 71.6124 0.572266 71.9757C0.935742 72.339 1.43945 72.548 1.95312 72.548C2.4668 72.548 2.9707 72.339 3.33379 71.9757C3.69707 71.6124 3.90625 71.1085 3.90625 70.5948C3.90625 70.0812 3.69727 69.5773 3.33379 69.214C2.9707 68.8507 2.4668 68.6417 1.95312 68.6417Z" fill="white"/>
</g>
<defs>
<clipPath id="clip0">
<rect width="100" height="100" fill="white"/>
</clipPath>
</defs>
</svg>
