<svg width="100" height="100" viewBox="0 0 100 100" fill="none" xmlns="http://www.w3.org/2000/svg">
<path d="M45.9194 22.449V55.4689L71.207 71.4286L75.5113 64.8246L53.9899 51.6166V22.449H45.9194Z" fill="white"/>
<path d="M88.4444 44.4443C89.2818 49.9661 88.9126 55.6039 87.3621 60.9693C85.8116 66.3348 83.1167 71.3005 79.463 75.5245C75.8092 79.7485 71.2834 83.1305 66.1972 85.4375C61.111 87.7446 55.5853 88.9219 50.0004 88.8885C28.334 88.8885 11.112 71.6664 11.112 49.9998C11.112 28.3332 28.334 11.1111 50.0004 11.1111C53.8893 11.1111 57.6114 11.6666 61.1114 12.7222V1.27777C57.5559 0.444443 53.8337 0 50.0004 0C22.2229 0 0.000976562 22.2221 0.000976562 49.9998C0.000976562 77.7774 22.2229 99.9996 50.0004 99.9996C57.043 100.029 64.0117 98.5638 70.4464 95.7012C76.881 92.8386 82.6353 88.6436 87.3291 83.3931C92.023 78.1427 95.5497 71.9562 97.6764 65.2423C99.8031 58.5284 100.481 51.4397 99.6665 44.4443H88.4444Z" fill="white"/>
</svg>
