<svg width="100" height="100" viewBox="0 0 100 100" fill="none" xmlns="http://www.w3.org/2000/svg">
<path d="M50.001 100C22.386 100 0.000976562 77.615 0.000976562 50C0.000976562 22.385 22.386 0 50.001 0C77.616 0 100.001 22.385 100.001 50C100.001 77.615 77.616 100 50.001 100ZM50.001 90C60.6096 90 70.7838 85.7857 78.2853 78.2843C85.7867 70.7828 90.001 60.6087 90.001 50C90.001 39.3913 85.7867 29.2172 78.2853 21.7157C70.7838 14.2143 60.6096 10 50.001 10C39.3923 10 29.2182 14.2143 21.7167 21.7157C14.2153 29.2172 10.001 39.3913 10.001 50C10.001 60.6087 14.2153 70.7828 21.7167 78.2843C29.2182 85.7857 39.3923 90 50.001 90ZM32.501 60H60.001C60.664 60 61.2999 59.7366 61.7687 59.2678C62.2376 58.7989 62.501 58.163 62.501 57.5C62.501 56.837 62.2376 56.2011 61.7687 55.7322C61.2999 55.2634 60.664 55 60.001 55H40.001C36.6858 55 33.5063 53.683 31.1621 51.3388C28.8179 48.9946 27.501 45.8152 27.501 42.5C27.501 39.1848 28.8179 36.0054 31.1621 33.6612C33.5063 31.317 36.6858 30 40.001 30H45.001V20H55.001V30H67.501V40H40.001C39.3379 40 38.702 40.2634 38.2332 40.7322C37.7644 41.2011 37.501 41.837 37.501 42.5C37.501 43.163 37.7644 43.7989 38.2332 44.2678C38.702 44.7366 39.3379 45 40.001 45H60.001C63.3162 45 66.4956 46.317 68.8398 48.6612C71.184 51.0054 72.501 54.1848 72.501 57.5C72.501 60.8152 71.184 63.9946 68.8398 66.3388C66.4956 68.683 63.3162 70 60.001 70H55.001V80H45.001V70H32.501V60Z" fill="white"/>
</svg>
