<svg width="112" height="100" viewBox="0 0 112 100" fill="none" xmlns="http://www.w3.org/2000/svg">
<path d="M102.882 17.7005C98.6941 9.12603 86.6298 2.11055 72.5965 6.19512C65.8907 8.12746 60.04 12.2714 56.0003 17.9499C51.9606 12.2714 46.1099 8.12746 39.4041 6.19512C25.3395 2.17291 13.3065 9.12603 9.11839 17.7005C3.24253 29.7047 5.68039 43.2056 16.3695 57.829C24.7457 69.272 36.7162 80.8709 54.0938 94.3406C54.6429 94.7679 55.3194 95 56.0159 95C56.7124 95 57.3889 94.7679 57.9381 94.3406C75.2844 80.9021 87.2861 69.3967 95.6624 57.829C106.32 43.2056 108.758 29.7047 102.882 17.7005V17.7005Z" stroke="white" stroke-width="10"/>
<path d="M61.9608 35.613H49.7715V46.115H39.2444V58.2751H49.7715V68.7771H61.9608V58.2751H72.4879V46.115H61.9608V35.613ZM70.2717 48.3259V56.0642H59.7446V66.5662H51.9877V56.0642H41.4606V48.3259H51.9877V37.824H59.7446V48.3259H70.2717Z" stroke="white" stroke-width="3"/>
</svg>
