<svg width="100" height="100" viewBox="0 0 100 100" fill="none" xmlns="http://www.w3.org/2000/svg">
<path d="M82.9102 15.9836C81.832 15.9836 80.957 16.8586 80.957 17.9368C80.957 19.0149 81.832 19.8899 82.9102 19.8899C83.9883 19.8899 84.8633 19.0149 84.8633 17.9368C84.8633 16.8584 83.9883 15.9836 82.9102 15.9836Z" fill="white"/>
<path d="M93.0582 14.0158C88.3971 8.77695 81.9318 5.8918 74.8535 5.8918C67.1135 5.8918 60.0506 8.89199 54.4289 14.5682C52.474 16.5418 51.0129 18.5137 50 20.0785C48.9871 18.5139 47.526 16.5422 45.5711 14.5682C39.9494 8.8918 32.8867 5.8916 25.1465 5.8916C10.3309 5.8916 0 18.2863 0 33.0227C0 52.9285 21.0945 69.6893 48.7209 93.6312C49.0879 93.9494 49.5439 94.1084 50 94.1084C50.4561 94.1084 50.9121 93.9494 51.2791 93.6312C78.9713 69.632 100 52.9008 100 33.0227C100 25.7971 97.5348 19.0471 93.0582 14.0158ZM50 89.5717C23.9123 66.9967 3.90625 50.7826 3.90625 33.0227C3.90625 19.7824 13.0375 9.79805 25.1465 9.79805C31.8699 9.79805 37.7756 12.2953 42.6994 17.2201C46.4506 20.9721 48.2008 24.8012 48.218 24.8395C48.5322 25.54 49.2289 25.99 49.9971 25.9916C49.9982 25.9916 49.9996 25.9916 50.0008 25.9916C50.7687 25.9916 51.4664 25.5398 51.7822 24.8395C51.7994 24.8012 53.5496 20.9723 57.3008 17.2201C62.2244 12.2951 68.1301 9.79805 74.8537 9.79805C86.9627 9.79805 96.0939 19.7824 96.0939 33.0227C96.0938 51.1836 74.7676 68.1391 50 89.5717Z" fill="white"/>
<path d="M89.7415 22.9416C89.2405 21.9861 88.0598 21.6181 87.1048 22.1189C86.1495 22.6199 85.7811 23.8003 86.2821 24.7556C87.5714 27.214 88.2813 30.15 88.2813 33.0226C88.2813 38.6664 85.5952 44.6564 79.8278 51.8736C79.1544 52.7162 79.2917 53.9453 80.1343 54.6187C80.9823 55.2964 82.2102 55.1496 82.8794 54.3123C89.2298 46.3654 92.1876 39.6003 92.1876 33.0226C92.1876 29.4789 91.3417 25.9929 89.7415 22.9416Z" fill="white"/>
<path d="M68.75 43.3274H57.8125V32.3899C57.8125 31.3112 56.9381 30.4368 55.8594 30.4368H44.1406C43.0619 30.4368 42.1875 31.3112 42.1875 32.3899V43.3274H31.25C30.1713 43.3274 29.2969 44.2018 29.2969 45.2805V56.9993C29.2969 58.078 30.1713 58.9524 31.25 58.9524H42.1875V69.8899C42.1875 70.9686 43.0619 71.843 44.1406 71.843H55.8594C56.9381 71.843 57.8125 70.9686 57.8125 69.8899V58.9524H68.75C69.8287 58.9524 70.7031 58.078 70.7031 56.9993V45.2805C70.7031 44.2018 69.8287 43.3274 68.75 43.3274ZM66.7969 55.0459H55.8594C54.7807 55.0459 53.9062 55.9204 53.9062 56.9991V67.9366H46.0938V56.9991C46.0938 55.9204 45.2193 55.0459 44.1406 55.0459H33.2031V47.2334H44.1406C45.2193 47.2334 46.0938 46.359 46.0938 45.2803V34.3428H53.9062V45.2803C53.9062 46.359 54.7807 47.2334 55.8594 47.2334H66.7969V55.0459Z" fill="white"/>
</svg>
