<svg id="Layer_1" data-name="Layer 1" xmlns="http://www.w3.org/2000/svg" xmlns:xlink="http://www.w3.org/1999/xlink" viewBox="0 0 774 200"><defs><style>.cls-1{fill:none;}.cls-2{clip-path:url(#clip-path);}.cls-3{fill:#2f80ed;}.cls-4{fill:url(#linear-gradient);}.cls-5{fill:url(#linear-gradient-2);}.cls-6{fill:url(#linear-gradient-3);}.cls-7{fill:url(#linear-gradient-4);}.cls-8{fill:url(#linear-gradient-5);}</style><clipPath id="clip-path"><rect class="cls-1" x="14.26" y="24.5" width="744.99" height="157.91"/></clipPath><linearGradient id="linear-gradient" x1="376.25" y1="10.5" x2="376.25" y2="-114.98" gradientTransform="matrix(1, 0, 0, -1, -41.5, 35)" gradientUnits="userSpaceOnUse"><stop offset="0" stop-color="#29abe2"/><stop offset="1" stop-color="#5bb3c6"/></linearGradient><linearGradient id="linear-gradient-2" x1="479.13" y1="-24.08" x2="479.13" y2="-114.99" xlink:href="#linear-gradient"/><linearGradient id="linear-gradient-3" x1="579.5" y1="-24.06" x2="579.5" y2="-112.73" xlink:href="#linear-gradient"/><linearGradient id="linear-gradient-4" x1="667.76" y1="-24.06" x2="667.76" y2="-114.98" xlink:href="#linear-gradient"/><linearGradient id="linear-gradient-5" x1="756.2" y1="-24.08" x2="756.2" y2="-114.99" xlink:href="#linear-gradient"/></defs><title>logo-light</title><g id="Page-1"><g class="cls-2"><path class="cls-3" d="M121.55,87.24c0,34.22-25.44,60.49-58.84,60.49H14.26V41.21A14.46,14.46,0,0,1,28.73,26.75h34C96.11,26.75,121.55,53,121.55,87.24Zm-26.65,0c0-20.75-13.15-33.88-32.19-33.88H48.17A6.23,6.23,0,0,0,42,59.58v61.53H62.71C81.75,121.12,94.9,108,94.9,87.24Z"/><path class="cls-3" d="M188.18,59.59V89c-10.73-1.73-26,2.59-26,19.71v39.06h-26V61.32h26V76.71C165.68,65.11,177.28,59.59,188.18,59.59Z"/><path class="cls-3" d="M284.21,61.32l-29.59,83.83c-9.68,27.48-25.09,38.38-49.32,37.17V158.1c12.12,0,17.83-3.8,21.64-14.34L192.51,61.32h28.55l19.2,52.89,16.28-52.89Z"/><path class="cls-4" d="M336.66,150Q319.17,150,307,142a41.82,41.82,0,0,1-17-21.77l17.14-10q7.26,20.4,30.12,20.39,11.24,0,16.87-4.41a13.92,13.92,0,0,0,5.62-11.5,12.64,12.64,0,0,0-6.05-11.31q-6.06-3.9-21.47-8.56-8.64-2.59-14-4.84a64.68,64.68,0,0,1-11.33-6.31,25.89,25.89,0,0,1-8.92-10.11A31.92,31.92,0,0,1,295,59.41q0-16.08,11.41-25.49t27.52-9.42q14.53,0,25.45,7.08a46.34,46.34,0,0,1,16.79,19.53l-16.79,9.67q-7.62-16.94-25.45-16.94-8.64,0-13.84,4.06a13.2,13.2,0,0,0-5.19,11,12.54,12.54,0,0,0,5.27,10.64q5.28,3.88,19.12,8.21,6.93,2.25,10.12,3.37c2.14.75,5.14,1.94,9,3.54a35.38,35.38,0,0,1,8.74,4.84,67.27,67.27,0,0,1,6.32,6,20.63,20.63,0,0,1,4.76,8.29,37.13,37.13,0,0,1,1.38,10.54q0,16.41-11.85,26T336.66,150Z"/><path class="cls-5" d="M412.62,112.48q2.07,9.85,9.52,15.12t18.17,5.27q14.88,0,22.33-10.72l15.41,9Q465.24,150,440.14,150q-21.12,0-34.09-12.88t-13-32.58q0-19.35,12.81-32.4t32.88-13q19,0,31.23,13.31t12.2,32.33a57.94,57.94,0,0,1-.7,7.77H412.62Zm-.17-15.22h50.89q-1.9-10.55-8.74-15.91a25.22,25.22,0,0,0-16-5.35q-10.38,0-17.3,5.7A25.74,25.74,0,0,0,412.45,97.26Z"/><path class="cls-6" d="M544.14,59.06q14.88,0,24.06,9.51t9.17,26.1v53.06H558.68V96.58q0-9.69-5.19-14.86T539.3,76.53c-6.57,0-11.89,2-15.92,6.13s-6.06,10.35-6.06,18.75v46.32H498.63V61.31h18.69V72.38Q525.8,59.06,544.14,59.06Z"/><path class="cls-7" d="M614.23,85.16q0,4.32,4.76,6.83a55.44,55.44,0,0,0,11.6,4.32q6.82,1.81,13.76,4.24A26.06,26.06,0,0,1,656,108.76q4.76,5.79,4.76,14.61,0,12.44-9.6,19.53T627,150q-12.81,0-22-5.36a31.52,31.52,0,0,1-13.33-14.85l16.09-9.34q4.5,12.44,19.21,12.44t14.71-9.67c0-2.76-1.59-5-4.76-6.75a52.35,52.35,0,0,0-11.6-4.4q-6.84-1.81-13.76-4.24a26.49,26.49,0,0,1-11.68-8q-4.76-5.62-4.76-14.26a23.32,23.32,0,0,1,9.09-19.18q9.08-7.26,22.58-7.27A38.08,38.08,0,0,1,646,63.82a32.29,32.29,0,0,1,12.9,13.23l-15.74,8.81Q638.62,76,626.85,76a16.37,16.37,0,0,0-9,2.33A7.65,7.65,0,0,0,614.23,85.16Z"/><path class="cls-8" d="M689.69,112.48q2.07,9.85,9.52,15.12t18.17,5.27q14.88,0,22.33-10.72l15.41,9Q742.3,150,717.21,150q-21.12,0-34.09-12.88t-13-32.58q0-19.35,12.81-32.4t32.88-13q19,0,31.23,13.31t12.2,32.33a57.94,57.94,0,0,1-.7,7.77H689.69Zm-.18-15.22h50.88q-1.9-10.55-8.74-15.91a25.19,25.19,0,0,0-16-5.35q-10.38,0-17.31,5.7A25.73,25.73,0,0,0,689.51,97.26Z"/></g></g></svg>