<svg width="971" height="675" viewBox="0 0 971 675" fill="none" xmlns="http://www.w3.org/2000/svg">
<path fill-rule="evenodd" clip-rule="evenodd" d="M34.2156 0H200.606C218.508 0 233.02 14.5624 233.02 32.526V437.474C233.02 455.438 218.508 470 200.606 470H34.2156C16.3139 470 1.80176 455.438 1.80176 437.474V32.526C1.80176 14.5624 16.3139 0 34.2156 0Z" fill="#444444"/>
<path fill-rule="evenodd" clip-rule="evenodd" d="M34.7558 2.71057H200.066C216.774 2.71057 230.319 16.3021 230.319 33.0681V436.932C230.319 453.698 216.774 467.29 200.066 467.29H34.7558C18.0476 467.29 4.50293 453.698 4.50293 436.932V33.0681C4.50293 16.3021 18.0476 2.71057 34.7558 2.71057Z" fill="#141414"/>
<rect x="229.239" y="45.1749" width="3.96175" height="3.614" fill="#141414"/>
<rect x="1.80176" y="45.1749" width="3.96169" height="3.614" fill="#141414"/>
<rect x="229.239" y="421.03" width="3.96175" height="3.61401" fill="#141414"/>
<rect x="1.80176" y="421.03" width="3.96169" height="3.61401" fill="#141414"/>
<path fill-rule="evenodd" clip-rule="evenodd" d="M16.2983 34.4888C16.2983 23.5246 25.1662 14.6363 36.1065 14.6363H199.076C210.016 14.6363 218.885 23.5239 218.885 34.4888V434.426C218.885 445.39 210.017 454.279 199.076 454.279H36.1065C25.1667 454.279 16.2983 445.391 16.2983 434.426V34.4888Z" fill="white"/>
<path fill-rule="evenodd" clip-rule="evenodd" d="M93.6409 21.684C94.8343 21.684 95.8018 20.7132 95.8018 19.5156C95.8018 18.318 94.8343 17.3472 93.6409 17.3472C92.4475 17.3472 91.48 18.318 91.48 19.5156C91.48 20.7132 92.4475 21.684 93.6409 21.684Z" fill="#444444"/>
<path fill-rule="evenodd" clip-rule="evenodd" d="M143.702 23.1295C145.691 23.1295 147.304 21.5114 147.304 19.5155C147.304 17.5195 145.691 15.9015 143.702 15.9015C141.713 15.9015 140.101 17.5195 140.101 19.5155C140.101 21.5114 141.713 23.1295 143.702 23.1295Z" fill="#444444"/>
<path fill-rule="evenodd" clip-rule="evenodd" d="M105.526 18.0699H129.656C130.452 18.0699 131.097 18.7172 131.097 19.5155C131.097 20.3138 130.452 20.9611 129.656 20.9611H105.526C104.73 20.9611 104.085 20.3138 104.085 19.5155C104.085 18.7172 104.73 18.0699 105.526 18.0699Z" fill="#444444"/>
<path fill-rule="evenodd" clip-rule="evenodd" d="M0.000976562 97.9375C0.000976562 97.5393 0.387306 97.2164 0.867454 97.2164H2.1619V131.549H0.867454C0.388912 131.549 0.000976562 131.226 0.000976562 130.828V97.9375Z" fill="#444444"/>
<path fill-rule="evenodd" clip-rule="evenodd" d="M0.000976562 140.763C0.000976562 140.365 0.387306 140.042 0.867454 140.042H2.1619V174.375H0.867454C0.388912 174.375 0.000976562 174.052 0.000976562 173.654V140.763Z" fill="#444444"/>
<path fill-rule="evenodd" clip-rule="evenodd" d="M0.000976562 64.3285C0.000976562 63.9296 0.387306 63.6062 0.867454 63.6062H2.1619V82.399H0.867454C0.388912 82.399 0.000976562 82.0768 0.000976562 81.6767V64.3285Z" fill="#444444"/>
<path fill-rule="evenodd" clip-rule="evenodd" d="M232.84 108.058H233.921C234.517 108.058 235.001 108.461 235.001 108.961V163.173C235.001 163.671 234.516 164.075 233.921 164.075H232.84V108.058Z" fill="#444444"/>
<path fill-rule="evenodd" clip-rule="evenodd" d="M60.1467 14.6365V17.8851C60.1467 25.0633 65.96 30.8795 73.131 30.8795H161.871C169.042 30.8795 174.856 25.0617 174.856 17.8851L174.856 16.9834V16.8036V16.7978L174.856 14.6365H60.1467Z" fill="#212121"/>
<path d="M128.695 406.154C130.461 406.154 131.893 404.722 131.893 402.956C131.893 401.19 130.461 399.758 128.695 399.758C126.929 399.758 125.497 401.19 125.497 402.956C125.497 404.722 126.929 406.154 128.695 406.154Z" fill="url(#paint0_linear)"/>
<path d="M117.499 406.154C119.266 406.154 120.697 404.722 120.697 402.956C120.697 401.19 119.266 399.758 117.499 399.758C115.733 399.758 114.301 401.19 114.301 402.956C114.301 404.722 115.733 406.154 117.499 406.154Z" fill="url(#paint1_linear)"/>
<path d="M106.307 406.154C108.073 406.154 109.505 404.722 109.505 402.956C109.505 401.19 108.073 399.758 106.307 399.758C104.541 399.758 103.109 401.19 103.109 402.956C103.109 404.722 104.541 406.154 106.307 406.154Z" stroke="url(#paint2_linear)" stroke-width="2" stroke-linecap="round" stroke-linejoin="round"/>
<path d="M70.8271 344.281V341.465H72.3011C73.4451 341.465 73.9291 341.993 73.9291 342.884C73.9291 343.742 73.4451 344.281 72.3011 344.281H70.8271ZM74.9521 342.884C74.9521 341.63 74.1051 340.64 72.3011 340.64H69.8261V348.307H70.8271V345.106H72.3011C74.2041 345.106 74.9521 344.05 74.9521 342.884ZM77.1972 345.029C77.1972 343.632 77.9232 343.203 78.8802 343.203H79.1442V342.169C78.1872 342.169 77.5382 342.587 77.1972 343.258V342.279H76.1962V348.307H77.1972V345.029ZM86.0198 345.282C86.0198 343.379 84.6888 342.18 82.9728 342.18C81.2678 342.18 79.9258 343.379 79.9258 345.282C79.9258 347.196 81.2238 348.406 82.9288 348.406C84.6448 348.406 86.0198 347.196 86.0198 345.282ZM80.9488 345.282C80.9488 343.764 81.9058 343.049 82.9618 343.049C83.9958 343.049 84.9968 343.764 84.9968 345.282C84.9968 346.811 83.9738 347.526 82.9288 347.526C81.8838 347.526 80.9488 346.811 80.9488 345.282ZM86.6209 342.279L88.9859 348.307H90.1519L92.5169 342.279H91.4499L89.5799 347.383L87.6989 342.279H86.6209ZM93.5019 348.307H94.5029V342.279H93.5019V348.307ZM94.0189 341.3C94.3819 341.3 94.6789 341.003 94.6789 340.618C94.6789 340.233 94.3819 339.936 94.0189 339.936C93.6339 339.936 93.3369 340.233 93.3369 340.618C93.3369 341.003 93.6339 341.3 94.0189 341.3ZM95.8349 345.271C95.8349 347.141 97.0779 348.406 98.6949 348.406C99.7949 348.406 100.576 347.845 100.939 347.174V348.307H101.951V340.167H100.939V343.357C100.521 342.664 99.6519 342.18 98.7059 342.18C97.0779 342.18 95.8349 343.39 95.8349 345.271ZM100.939 345.282C100.939 346.701 99.9929 347.526 98.8929 347.526C97.7929 347.526 96.8579 346.69 96.8579 345.271C96.8579 343.852 97.7929 343.049 98.8929 343.049C99.9929 343.049 100.939 343.885 100.939 345.282ZM106.206 343.027C107.24 343.027 108.12 343.676 108.109 344.853H104.303C104.413 343.676 105.227 343.027 106.206 343.027ZM109.022 346.448H107.944C107.724 347.097 107.152 347.559 106.25 347.559C105.227 347.559 104.369 346.888 104.292 345.667H109.11C109.132 345.458 109.143 345.282 109.143 345.062C109.143 343.412 107.999 342.18 106.25 342.18C104.49 342.18 103.269 343.379 103.269 345.282C103.269 347.196 104.534 348.406 106.25 348.406C107.746 348.406 108.714 347.548 109.022 346.448ZM118.742 342.279H117.741V345.59C117.741 346.888 117.048 347.526 116.014 347.526C115.002 347.526 114.331 346.899 114.331 345.678V342.279H113.341V345.81C113.341 347.537 114.43 348.395 115.816 348.395C116.619 348.395 117.356 348.043 117.741 347.416V348.307H118.742V342.279ZM124.767 346.668C124.723 344.512 121.225 345.293 121.225 343.863C121.225 343.379 121.665 343.027 122.402 343.027C123.205 343.027 123.667 343.467 123.711 344.072H124.712C124.646 342.895 123.766 342.18 122.435 342.18C121.093 342.18 120.224 342.939 120.224 343.863C120.224 346.107 123.788 345.326 123.788 346.668C123.788 347.163 123.348 347.559 122.556 347.559C121.709 347.559 121.192 347.119 121.137 346.536H120.103C120.169 347.636 121.159 348.406 122.567 348.406C123.898 348.406 124.767 347.658 124.767 346.668ZM130.289 348.307H131.323L132.775 343.522L134.227 348.307H135.261L137.142 342.279H136.152L134.788 347.35L133.325 342.279H132.302L130.806 347.339L129.42 342.279H128.397L130.289 348.307ZM138.136 348.307H139.137V342.279H138.136V348.307ZM138.653 341.3C139.016 341.3 139.313 341.003 139.313 340.618C139.313 340.233 139.016 339.936 138.653 339.936C138.268 339.936 137.971 340.233 137.971 340.618C137.971 341.003 138.268 341.3 138.653 341.3ZM141.063 346.657C141.063 347.867 141.668 348.307 142.735 348.307H143.637V347.46H142.9C142.284 347.46 142.064 347.251 142.064 346.657V343.104H143.637V342.279H142.064V340.761H141.063V342.279H140.282V343.104H141.063V346.657ZM144.85 348.307H145.851V344.974C145.851 343.676 146.555 343.038 147.578 343.038C148.59 343.038 149.261 343.665 149.261 344.897V348.307H150.251V344.754C150.251 343.027 149.184 342.169 147.842 342.169C146.995 342.169 146.247 342.51 145.851 343.148V340.167H144.85V348.307ZM155.038 346.657C155.038 347.867 155.643 348.307 156.71 348.307H157.612V347.46H156.875C156.259 347.46 156.039 347.251 156.039 346.657V343.104H157.612V342.279H156.039V340.761H155.038V342.279H154.257V343.104H155.038V346.657ZM158.825 348.307H159.826V344.974C159.826 343.676 160.53 343.038 161.553 343.038C162.565 343.038 163.236 343.665 163.236 344.897V348.307H164.226V344.754C164.226 343.027 163.159 342.169 161.817 342.169C160.97 342.169 160.222 342.51 159.826 343.148V340.167H158.825V348.307ZM168.424 343.027C169.458 343.027 170.338 343.676 170.327 344.853H166.521C166.631 343.676 167.445 343.027 168.424 343.027ZM171.24 346.448H170.162C169.942 347.097 169.37 347.559 168.468 347.559C167.445 347.559 166.587 346.888 166.51 345.667H171.328C171.35 345.458 171.361 345.282 171.361 345.062C171.361 343.412 170.217 342.18 168.468 342.18C166.708 342.18 165.487 343.379 165.487 345.282C165.487 347.196 166.752 348.406 168.468 348.406C169.964 348.406 170.932 347.548 171.24 346.448ZM72.6741 364.307H73.6641V360.754C73.6641 359.027 72.5971 358.169 71.2001 358.169C70.3861 358.169 69.6601 358.51 69.2641 359.137V358.279H68.2631V364.307H69.2641V360.974C69.2641 359.676 69.9681 359.038 70.9911 359.038C72.0031 359.038 72.6741 359.665 72.6741 360.897V364.307ZM77.8623 359.027C78.8963 359.027 79.7763 359.676 79.7653 360.853H75.9593C76.0693 359.676 76.8833 359.027 77.8623 359.027ZM80.6783 362.448H79.6003C79.3803 363.097 78.8083 363.559 77.9063 363.559C76.8833 363.559 76.0253 362.888 75.9483 361.667H80.7663C80.7883 361.458 80.7993 361.282 80.7993 361.062C80.7993 359.412 79.6553 358.18 77.9063 358.18C76.1463 358.18 74.9253 359.379 74.9253 361.282C74.9253 363.196 76.1903 364.406 77.9063 364.406C79.4023 364.406 80.3703 363.548 80.6783 362.448ZM81.7466 361.282C81.7466 363.196 82.9676 364.406 84.6836 364.406C86.1796 364.406 87.1586 363.57 87.4666 362.371H86.3886C86.1686 363.13 85.5746 363.559 84.6836 363.559C83.5836 363.559 82.7696 362.778 82.7696 361.282C82.7696 359.808 83.5836 359.027 84.6836 359.027C85.5746 359.027 86.1796 359.489 86.3886 360.215H87.4666C87.1586 358.95 86.1796 358.18 84.6836 358.18C82.9676 358.18 81.7466 359.39 81.7466 361.282ZM91.3652 359.027C92.3992 359.027 93.2792 359.676 93.2682 360.853H89.4622C89.5722 359.676 90.3862 359.027 91.3652 359.027ZM94.1812 362.448H93.1032C92.8832 363.097 92.3112 363.559 91.4092 363.559C90.3862 363.559 89.5282 362.888 89.4512 361.667H94.2692C94.2912 361.458 94.3022 361.282 94.3022 361.062C94.3022 359.412 93.1582 358.18 91.4092 358.18C89.6492 358.18 88.4282 359.379 88.4282 361.282C88.4282 363.196 89.6932 364.406 91.4092 364.406C92.9052 364.406 93.8732 363.548 94.1812 362.448ZM99.9575 362.668C99.9135 360.512 96.4155 361.293 96.4155 359.863C96.4155 359.379 96.8555 359.027 97.5925 359.027C98.3955 359.027 98.8575 359.467 98.9015 360.072H99.9025C99.8365 358.895 98.9565 358.18 97.6255 358.18C96.2835 358.18 95.4145 358.939 95.4145 359.863C95.4145 362.107 98.9785 361.326 98.9785 362.668C98.9785 363.163 98.5385 363.559 97.7465 363.559C96.8995 363.559 96.3825 363.119 96.3275 362.536H95.2935C95.3595 363.636 96.3495 364.406 97.7575 364.406C99.0885 364.406 99.9575 363.658 99.9575 362.668ZM105.705 362.668C105.661 360.512 102.163 361.293 102.163 359.863C102.163 359.379 102.603 359.027 103.34 359.027C104.143 359.027 104.605 359.467 104.649 360.072H105.65C105.584 358.895 104.704 358.18 103.373 358.18C102.031 358.18 101.162 358.939 101.162 359.863C101.162 362.107 104.726 361.326 104.726 362.668C104.726 363.163 104.286 363.559 103.494 363.559C102.647 363.559 102.13 363.119 102.075 362.536H101.041C101.107 363.636 102.097 364.406 103.505 364.406C104.836 364.406 105.705 363.658 105.705 362.668ZM106.744 361.271C106.744 363.141 107.987 364.406 109.593 364.406C110.704 364.406 111.485 363.834 111.848 363.185V364.307H112.86V358.279H111.848V359.379C111.496 358.752 110.726 358.18 109.604 358.18C107.987 358.18 106.744 359.39 106.744 361.271ZM111.848 361.282C111.848 362.701 110.902 363.526 109.802 363.526C108.702 363.526 107.767 362.69 107.767 361.271C107.767 359.852 108.702 359.049 109.802 359.049C110.902 359.049 111.848 359.885 111.848 361.282ZM115.552 361.029C115.552 359.632 116.278 359.203 117.235 359.203H117.499V358.169C116.542 358.169 115.893 358.587 115.552 359.258V358.279H114.551V364.307H115.552V361.029ZM120.943 363.163L119.051 358.279H117.94L120.371 364.241L119.183 367.145H120.217L123.847 358.279H122.813L120.943 363.163ZM128.787 361.029C128.787 359.632 129.513 359.203 130.47 359.203H130.734V358.169C129.777 358.169 129.128 358.587 128.787 359.258V358.279H127.786V364.307H128.787V361.029ZM134.452 359.027C135.486 359.027 136.366 359.676 136.355 360.853H132.549C132.659 359.676 133.473 359.027 134.452 359.027ZM137.268 362.448H136.19C135.97 363.097 135.398 363.559 134.496 363.559C133.473 363.559 132.615 362.888 132.538 361.667H137.356C137.378 361.458 137.389 361.282 137.389 361.062C137.389 359.412 136.245 358.18 134.496 358.18C132.736 358.18 131.515 359.379 131.515 361.282C131.515 363.196 132.78 364.406 134.496 364.406C135.992 364.406 136.96 363.548 137.268 362.448ZM138.336 361.271C138.336 363.141 139.579 364.406 141.174 364.406C142.296 364.406 143.099 363.812 143.44 363.196V367.167H144.452V358.279H143.44V359.379C143.099 358.752 142.307 358.18 141.207 358.18C139.579 358.18 138.336 359.39 138.336 361.271ZM143.44 361.282C143.44 362.701 142.494 363.526 141.394 363.526C140.294 363.526 139.359 362.69 139.359 361.271C139.359 359.852 140.294 359.049 141.394 359.049C142.494 359.049 143.44 359.885 143.44 361.282ZM151.49 358.279H150.489V361.59C150.489 362.888 149.796 363.526 148.762 363.526C147.75 363.526 147.079 362.899 147.079 361.678V358.279H146.089V361.81C146.089 363.537 147.178 364.395 148.564 364.395C149.367 364.395 150.104 364.043 150.489 363.416V364.307H151.49V358.279ZM153.18 364.307H154.181V358.279H153.18V364.307ZM153.697 357.3C154.06 357.3 154.357 357.003 154.357 356.618C154.357 356.233 154.06 355.936 153.697 355.936C153.312 355.936 153.015 356.233 153.015 356.618C153.015 357.003 153.312 357.3 153.697 357.3ZM156.888 361.029C156.888 359.632 157.614 359.203 158.571 359.203H158.835V358.169C157.878 358.169 157.229 358.587 156.888 359.258V358.279H155.887V364.307H156.888V361.029ZM162.554 359.027C163.588 359.027 164.468 359.676 164.457 360.853H160.651C160.761 359.676 161.575 359.027 162.554 359.027ZM165.37 362.448H164.292C164.072 363.097 163.5 363.559 162.598 363.559C161.575 363.559 160.717 362.888 160.64 361.667H165.458C165.48 361.458 165.491 361.282 165.491 361.062C165.491 359.412 164.347 358.18 162.598 358.18C160.838 358.18 159.617 359.379 159.617 361.282C159.617 363.196 160.882 364.406 162.598 364.406C164.094 364.406 165.062 363.548 165.37 362.448ZM166.438 361.271C166.438 363.141 167.681 364.406 169.298 364.406C170.398 364.406 171.179 363.845 171.542 363.174V364.307H172.554V356.167H171.542V359.357C171.124 358.664 170.255 358.18 169.309 358.18C167.681 358.18 166.438 359.39 166.438 361.271ZM171.542 361.282C171.542 362.701 170.596 363.526 169.496 363.526C168.396 363.526 167.461 362.69 167.461 361.271C167.461 359.852 168.396 359.049 169.496 359.049C170.596 359.049 171.542 359.885 171.542 361.282ZM52.0156 381.307H53.0166V375.279H52.0156V381.307ZM52.5326 374.3C52.8956 374.3 53.1926 374.003 53.1926 373.618C53.1926 373.233 52.8956 372.936 52.5326 372.936C52.1476 372.936 51.8506 373.233 51.8506 373.618C51.8506 374.003 52.1476 374.3 52.5326 374.3ZM59.1336 381.307H60.1236V377.754C60.1236 376.027 59.0566 375.169 57.6596 375.169C56.8456 375.169 56.1196 375.51 55.7236 376.137V375.279H54.7226V381.307H55.7236V377.974C55.7236 376.676 56.4276 376.038 57.4506 376.038C58.4626 376.038 59.1336 376.665 59.1336 377.897V381.307ZM61.9457 381.307H62.9467V376.104H64.2117V375.279H62.9467V374.85C62.9467 374.069 63.2437 373.739 64.1457 373.739V372.903C62.6057 372.903 61.9457 373.508 61.9457 374.85V375.279H61.1647V376.104H61.9457V381.307ZM71.0989 378.282C71.0989 376.379 69.7679 375.18 68.0519 375.18C66.3469 375.18 65.0049 376.379 65.0049 378.282C65.0049 380.196 66.3029 381.406 68.0079 381.406C69.7239 381.406 71.0989 380.196 71.0989 378.282ZM66.0279 378.282C66.0279 376.764 66.9849 376.049 68.0409 376.049C69.0749 376.049 70.0759 376.764 70.0759 378.282C70.0759 379.811 69.0529 380.526 68.0079 380.526C66.9629 380.526 66.0279 379.811 66.0279 378.282ZM73.416 378.029C73.416 376.632 74.142 376.203 75.099 376.203H75.363V375.169C74.406 375.169 73.757 375.587 73.416 376.258V375.279H72.415V381.307H73.416V378.029ZM85.2195 381.307H86.2095V377.754C86.2095 376.027 85.1425 375.169 83.7675 375.169C82.8435 375.169 81.9855 375.642 81.6335 376.511C81.2375 375.609 80.4125 375.169 79.4225 375.169C78.6305 375.169 77.9155 375.51 77.5195 376.148V375.279H76.5185V381.307H77.5195V377.985C77.5195 376.687 78.2125 376.038 79.2245 376.038C80.2145 376.038 80.8745 376.665 80.8745 377.897V381.307H81.8645V377.985C81.8645 376.687 82.5575 376.038 83.5695 376.038C84.5595 376.038 85.2195 376.665 85.2195 377.897V381.307ZM87.4775 378.271C87.4775 380.141 88.7205 381.406 90.3265 381.406C91.4375 381.406 92.2185 380.834 92.5815 380.185V381.307H93.5935V375.279H92.5815V376.379C92.2295 375.752 91.4595 375.18 90.3375 375.18C88.7205 375.18 87.4775 376.39 87.4775 378.271ZM92.5815 378.282C92.5815 379.701 91.6355 380.526 90.5355 380.526C89.4355 380.526 88.5005 379.69 88.5005 378.271C88.5005 376.852 89.4355 376.049 90.5355 376.049C91.6355 376.049 92.5815 376.885 92.5815 378.282ZM95.5051 379.657C95.5051 380.867 96.1101 381.307 97.1771 381.307H98.0791V380.46H97.3421C96.7261 380.46 96.5061 380.251 96.5061 379.657V376.104H98.0791V375.279H96.5061V373.761H95.5051V375.279H94.7241V376.104H95.5051V379.657ZM99.2919 381.307H100.293V375.279H99.2919V381.307ZM99.8089 374.3C100.172 374.3 100.469 374.003 100.469 373.618C100.469 373.233 100.172 372.936 99.8089 372.936C99.4239 372.936 99.1269 373.233 99.1269 373.618C99.1269 374.003 99.4239 374.3 99.8089 374.3ZM107.719 378.282C107.719 376.379 106.388 375.18 104.672 375.18C102.967 375.18 101.625 376.379 101.625 378.282C101.625 380.196 102.923 381.406 104.628 381.406C106.344 381.406 107.719 380.196 107.719 378.282ZM102.648 378.282C102.648 376.764 103.605 376.049 104.661 376.049C105.695 376.049 106.696 376.764 106.696 378.282C106.696 379.811 105.673 380.526 104.628 380.526C103.583 380.526 102.648 379.811 102.648 378.282ZM113.446 381.307H114.436V377.754C114.436 376.027 113.369 375.169 111.972 375.169C111.158 375.169 110.432 375.51 110.036 376.137V375.279H109.035V381.307H110.036V377.974C110.036 376.676 110.74 376.038 111.763 376.038C112.775 376.038 113.446 376.665 113.446 377.897V381.307ZM118.63 378.271C118.63 380.141 119.873 381.406 121.479 381.406C122.59 381.406 123.371 380.834 123.734 380.185V381.307H124.746V375.279H123.734V376.379C123.382 375.752 122.612 375.18 121.49 375.18C119.873 375.18 118.63 376.39 118.63 378.271ZM123.734 378.282C123.734 379.701 122.788 380.526 121.688 380.526C120.588 380.526 119.653 379.69 119.653 378.271C119.653 376.852 120.588 376.049 121.688 376.049C122.788 376.049 123.734 376.885 123.734 378.282ZM130.848 381.307H131.838V377.754C131.838 376.027 130.771 375.169 129.374 375.169C128.56 375.169 127.834 375.51 127.438 376.137V375.279H126.437V381.307H127.438V377.974C127.438 376.676 128.142 376.038 129.165 376.038C130.177 376.038 130.848 376.665 130.848 377.897V381.307ZM133.1 378.271C133.1 380.141 134.343 381.406 135.96 381.406C137.06 381.406 137.841 380.845 138.204 380.174V381.307H139.216V373.167H138.204V376.357C137.786 375.664 136.917 375.18 135.971 375.18C134.343 375.18 133.1 376.39 133.1 378.271ZM138.204 378.282C138.204 379.701 137.258 380.526 136.158 380.526C135.058 380.526 134.123 379.69 134.123 378.271C134.123 376.852 135.058 376.049 136.158 376.049C137.258 376.049 138.204 376.885 138.204 378.282ZM143.84 381.307H144.841V373.167H143.84V381.307ZM149.11 376.027C150.144 376.027 151.024 376.676 151.013 377.853H147.207C147.317 376.676 148.131 376.027 149.11 376.027ZM151.926 379.448H150.848C150.628 380.097 150.056 380.559 149.154 380.559C148.131 380.559 147.273 379.888 147.196 378.667H152.014C152.036 378.458 152.047 378.282 152.047 378.062C152.047 376.412 150.903 375.18 149.154 375.18C147.394 375.18 146.173 376.379 146.173 378.282C146.173 380.196 147.438 381.406 149.154 381.406C150.65 381.406 151.618 380.548 151.926 379.448ZM153.588 379.657C153.588 380.867 154.193 381.307 155.26 381.307H156.162V380.46H155.425C154.809 380.46 154.589 380.251 154.589 379.657V376.104H156.162V375.279H154.589V373.761H153.588V375.279H152.807V376.104H153.588V379.657ZM165.654 375.279H164.653V378.59C164.653 379.888 163.96 380.526 162.926 380.526C161.914 380.526 161.243 379.899 161.243 378.678V375.279H160.253V378.81C160.253 380.537 161.342 381.395 162.728 381.395C163.531 381.395 164.268 381.043 164.653 380.416V381.307H165.654V375.279ZM171.678 379.668C171.634 377.512 168.136 378.293 168.136 376.863C168.136 376.379 168.576 376.027 169.313 376.027C170.116 376.027 170.578 376.467 170.622 377.072H171.623C171.557 375.895 170.677 375.18 169.346 375.18C168.004 375.18 167.135 375.939 167.135 376.863C167.135 379.107 170.699 378.326 170.699 379.668C170.699 380.163 170.259 380.559 169.467 380.559C168.62 380.559 168.103 380.119 168.048 379.536H167.014C167.08 380.636 168.07 381.406 169.478 381.406C170.809 381.406 171.678 380.658 171.678 379.668ZM175.649 378.271C175.649 380.141 176.892 381.406 178.509 381.406C179.609 381.406 180.39 380.845 180.753 380.174V381.307H181.765V373.167H180.753V376.357C180.335 375.664 179.466 375.18 178.52 375.18C176.892 375.18 175.649 376.39 175.649 378.271ZM180.753 378.282C180.753 379.701 179.807 380.526 178.707 380.526C177.607 380.526 176.672 379.69 176.672 378.271C176.672 376.852 177.607 376.049 178.707 376.049C179.807 376.049 180.753 376.885 180.753 378.282ZM189.177 378.282C189.177 376.379 187.846 375.18 186.13 375.18C184.425 375.18 183.083 376.379 183.083 378.282C183.083 380.196 184.381 381.406 186.086 381.406C187.802 381.406 189.177 380.196 189.177 378.282ZM184.106 378.282C184.106 376.764 185.063 376.049 186.119 376.049C187.153 376.049 188.154 376.764 188.154 378.282C188.154 379.811 187.131 380.526 186.086 380.526C185.041 380.526 184.106 379.811 184.106 378.282ZM61.3557 395.657C61.3557 396.867 61.9607 397.307 63.0277 397.307H63.9297V396.46H63.1927C62.5767 396.46 62.3567 396.251 62.3567 395.657V392.104H63.9297V391.279H62.3567V389.761H61.3557V391.279H60.5747V392.104H61.3557V395.657ZM65.1425 397.307H66.1435V393.974C66.1435 392.676 66.8475 392.038 67.8705 392.038C68.8825 392.038 69.5535 392.665 69.5535 393.897V397.307H70.5435V393.754C70.5435 392.027 69.4765 391.169 68.1345 391.169C67.2875 391.169 66.5395 391.51 66.1435 392.148V389.167H65.1425V397.307ZM74.7417 392.027C75.7757 392.027 76.6557 392.676 76.6447 393.853H72.8387C72.9487 392.676 73.7627 392.027 74.7417 392.027ZM77.5577 395.448H76.4797C76.2597 396.097 75.6877 396.559 74.7857 396.559C73.7627 396.559 72.9047 395.888 72.8277 394.667H77.6457C77.6677 394.458 77.6787 394.282 77.6787 394.062C77.6787 392.412 76.5347 391.18 74.7857 391.18C73.0257 391.18 71.8047 392.379 71.8047 394.282C71.8047 396.196 73.0697 397.406 74.7857 397.406C76.2817 397.406 77.2497 396.548 77.5577 395.448ZM81.5586 394.282C81.5586 396.196 82.7796 397.406 84.4956 397.406C85.9916 397.406 86.9706 396.57 87.2786 395.371H86.2006C85.9806 396.13 85.3866 396.559 84.4956 396.559C83.3956 396.559 82.5816 395.778 82.5816 394.282C82.5816 392.808 83.3956 392.027 84.4956 392.027C85.3866 392.027 85.9916 392.489 86.2006 393.215H87.2786C86.9706 391.95 85.9916 391.18 84.4956 391.18C82.7796 391.18 81.5586 392.39 81.5586 394.282ZM94.3342 394.282C94.3342 392.379 93.0032 391.18 91.2872 391.18C89.5822 391.18 88.2402 392.379 88.2402 394.282C88.2402 396.196 89.5382 397.406 91.2432 397.406C92.9592 397.406 94.3342 396.196 94.3342 394.282ZM89.2632 394.282C89.2632 392.764 90.2202 392.049 91.2762 392.049C92.3102 392.049 93.3112 392.764 93.3112 394.282C93.3112 395.811 92.2882 396.526 91.2432 396.526C90.1982 396.526 89.2632 395.811 89.2632 394.282ZM100.061 397.307H101.051V393.754C101.051 392.027 99.9843 391.169 98.5873 391.169C97.7733 391.169 97.0473 391.51 96.6513 392.137V391.279H95.6503V397.307H96.6513V393.974C96.6513 392.676 97.3553 392.038 98.3783 392.038C99.3903 392.038 100.061 392.665 100.061 393.897V397.307ZM101.971 391.279L104.336 397.307H105.502L107.867 391.279H106.8L104.93 396.383L103.049 391.279H101.971ZM111.415 392.027C112.449 392.027 113.329 392.676 113.318 393.853H109.512C109.622 392.676 110.436 392.027 111.415 392.027ZM114.231 395.448H113.153C112.933 396.097 112.361 396.559 111.459 396.559C110.436 396.559 109.578 395.888 109.501 394.667H114.319C114.341 394.458 114.352 394.282 114.352 394.062C114.352 392.412 113.208 391.18 111.459 391.18C109.699 391.18 108.478 392.379 108.478 394.282C108.478 396.196 109.743 397.406 111.459 397.406C112.955 397.406 113.923 396.548 114.231 395.448ZM116.675 394.029C116.675 392.632 117.401 392.203 118.358 392.203H118.622V391.169C117.665 391.169 117.016 391.587 116.675 392.258V391.279H115.674V397.307H116.675V394.029ZM119.997 395.657C119.997 396.867 120.602 397.307 121.669 397.307H122.571V396.46H121.834C121.218 396.46 120.998 396.251 120.998 395.657V392.104H122.571V391.279H120.998V389.761H119.997V391.279H119.216V392.104H119.997V395.657ZM123.784 397.307H124.785V391.279H123.784V397.307ZM124.301 390.3C124.664 390.3 124.961 390.003 124.961 389.618C124.961 389.233 124.664 388.936 124.301 388.936C123.916 388.936 123.619 389.233 123.619 389.618C123.619 390.003 123.916 390.3 124.301 390.3ZM132.211 394.282C132.211 392.379 130.88 391.18 129.164 391.18C127.459 391.18 126.117 392.379 126.117 394.282C126.117 396.196 127.415 397.406 129.12 397.406C130.836 397.406 132.211 396.196 132.211 394.282ZM127.14 394.282C127.14 392.764 128.097 392.049 129.153 392.049C130.187 392.049 131.188 392.764 131.188 394.282C131.188 395.811 130.165 396.526 129.12 396.526C128.075 396.526 127.14 395.811 127.14 394.282ZM137.938 397.307H138.928V393.754C138.928 392.027 137.861 391.169 136.464 391.169C135.65 391.169 134.924 391.51 134.528 392.137V391.279H133.527V397.307H134.528V393.974C134.528 392.676 135.232 392.038 136.255 392.038C137.267 392.038 137.938 392.665 137.938 393.897V397.307ZM143.122 394.271C143.122 396.141 144.365 397.406 145.971 397.406C147.082 397.406 147.863 396.834 148.226 396.185V397.307H149.238V391.279H148.226V392.379C147.874 391.752 147.104 391.18 145.982 391.18C144.365 391.18 143.122 392.39 143.122 394.271ZM148.226 394.282C148.226 395.701 147.28 396.526 146.18 396.526C145.08 396.526 144.145 395.69 144.145 394.271C144.145 392.852 145.08 392.049 146.18 392.049C147.28 392.049 148.226 392.885 148.226 394.282ZM155.264 395.668C155.22 393.512 151.722 394.293 151.722 392.863C151.722 392.379 152.162 392.027 152.899 392.027C153.702 392.027 154.164 392.467 154.208 393.072H155.209C155.143 391.895 154.263 391.18 152.932 391.18C151.59 391.18 150.721 391.939 150.721 392.863C150.721 395.107 154.285 394.326 154.285 395.668C154.285 396.163 153.845 396.559 153.053 396.559C152.206 396.559 151.689 396.119 151.634 395.536H150.6C150.666 396.636 151.656 397.406 153.064 397.406C154.395 397.406 155.264 396.658 155.264 395.668ZM156.303 394.271C156.303 396.141 157.546 397.406 159.152 397.406C160.263 397.406 161.044 396.834 161.407 396.185V397.307H162.419V391.279H161.407V392.379C161.055 391.752 160.285 391.18 159.163 391.18C157.546 391.18 156.303 392.39 156.303 394.271ZM161.407 394.282C161.407 395.701 160.461 396.526 159.361 396.526C158.261 396.526 157.326 395.69 157.326 394.271C157.326 392.852 158.261 392.049 159.361 392.049C160.461 392.049 161.407 392.885 161.407 394.282ZM165.111 392.39V391.279H164.11V400.167H165.111V396.196C165.485 396.812 166.266 397.406 167.366 397.406C168.983 397.406 170.226 396.141 170.226 394.271C170.226 392.39 168.983 391.18 167.366 391.18C166.266 391.18 165.474 391.752 165.111 392.39ZM169.203 394.271C169.203 395.69 168.268 396.526 167.157 396.526C166.068 396.526 165.111 395.701 165.111 394.282C165.111 392.885 166.068 392.049 167.157 392.049C168.268 392.049 169.203 392.852 169.203 394.271ZM171.885 395.14H172.721L172.842 389.64H171.764L171.885 395.14ZM173.007 396.691C173.007 396.306 172.71 396.009 172.347 396.009C171.962 396.009 171.665 396.306 171.665 396.691C171.665 397.076 171.962 397.373 172.347 397.373C172.71 397.373 173.007 397.076 173.007 396.691ZM175.161 395.14H175.997L176.118 389.64H175.04L175.161 395.14ZM176.283 396.691C176.283 396.306 175.986 396.009 175.623 396.009C175.238 396.009 174.941 396.306 174.941 396.691C174.941 397.076 175.238 397.373 175.623 397.373C175.986 397.373 176.283 397.076 176.283 396.691ZM178.438 395.14H179.274L179.395 389.64H178.317L178.438 395.14ZM179.56 396.691C179.56 396.306 179.263 396.009 178.9 396.009C178.515 396.009 178.218 396.306 178.218 396.691C178.218 397.076 178.515 397.373 178.9 397.373C179.263 397.373 179.56 397.076 179.56 396.691Z" fill="#333333"/>
<path d="M167.001 73.3228C167.001 74.0962 166.721 74.7056 166.163 75.1509C165.608 75.5962 164.835 75.8189 163.843 75.8189C162.929 75.8189 162.12 75.647 161.417 75.3033V73.6158C161.995 73.8736 162.483 74.0552 162.882 74.1607C163.284 74.2661 163.651 74.3189 163.983 74.3189C164.382 74.3189 164.686 74.2427 164.897 74.0904C165.112 73.938 165.22 73.7115 165.22 73.4107C165.22 73.2427 165.173 73.0943 165.079 72.9654C164.985 72.8326 164.846 72.7056 164.663 72.5845C164.483 72.4634 164.114 72.2701 163.555 72.0044C163.032 71.7583 162.639 71.522 162.378 71.2954C162.116 71.0689 161.907 70.8052 161.751 70.5044C161.595 70.2036 161.516 69.8521 161.516 69.4497C161.516 68.6919 161.772 68.0962 162.284 67.6626C162.8 67.229 163.511 67.0122 164.417 67.0122C164.862 67.0122 165.286 67.065 165.688 67.1704C166.095 67.2759 166.518 67.4243 166.96 67.6158L166.374 69.0279C165.917 68.8404 165.538 68.7095 165.237 68.6353C164.94 68.5611 164.647 68.524 164.358 68.524C164.014 68.524 163.751 68.604 163.567 68.7642C163.384 68.9243 163.292 69.1333 163.292 69.3911C163.292 69.5513 163.329 69.6919 163.403 69.813C163.477 69.9302 163.595 70.0454 163.755 70.1587C163.919 70.2681 164.304 70.4673 164.909 70.7564C165.71 71.1392 166.259 71.524 166.555 71.9107C166.852 72.2935 167.001 72.7642 167.001 73.3228ZM170.13 72.1392L170.909 71.1431L172.743 69.1509H174.759L172.157 71.9927L174.917 75.7017H172.854L170.968 73.0474L170.2 73.6626V75.7017H168.413V66.5845H170.2V70.6509L170.106 72.1392H170.13ZM175.778 67.4576C175.778 66.8755 176.102 66.5845 176.751 66.5845C177.399 66.5845 177.723 66.8755 177.723 67.4576C177.723 67.7349 177.641 67.9517 177.477 68.1079C177.317 68.2603 177.075 68.3365 176.751 68.3365C176.102 68.3365 175.778 68.0435 175.778 67.4576ZM177.641 75.7017H175.854V69.1509H177.641V75.7017ZM183.12 75.8189C182.35 75.8189 181.747 75.5396 181.309 74.981H181.216C181.278 75.5279 181.309 75.8443 181.309 75.9302V78.5845H179.522V69.1509H180.975L181.227 70.0005H181.309C181.727 69.3521 182.346 69.0279 183.167 69.0279C183.94 69.0279 184.546 69.3267 184.983 69.9243C185.421 70.522 185.639 71.3521 185.639 72.4146C185.639 73.1138 185.536 73.7212 185.329 74.2368C185.126 74.7525 184.835 75.1451 184.456 75.4146C184.077 75.6841 183.632 75.8189 183.12 75.8189ZM182.593 70.4576C182.151 70.4576 181.829 70.5943 181.626 70.8677C181.423 71.1372 181.317 71.5845 181.309 72.2095V72.4029C181.309 73.106 181.413 73.6099 181.62 73.9146C181.831 74.2193 182.163 74.3716 182.616 74.3716C183.417 74.3716 183.817 73.7115 183.817 72.3911C183.817 71.7466 183.718 71.2642 183.518 70.9439C183.323 70.6197 183.014 70.4576 182.593 70.4576ZM186.694 73.1118L190.702 71.4654L186.694 69.6079V68.2017L192.512 71.1079V71.9458L186.694 74.5122V73.1118ZM193.55 73.1118L197.557 71.4654L193.55 69.6079V68.2017L199.368 71.1079V71.9458L193.55 74.5122V73.1118Z" fill="url(#paint3_linear)"/>
<g filter="url(#filter0_f)">
<ellipse cx="550.931" cy="626.608" rx="375.751" ry="4.15192" fill="black"/>
</g>
<path d="M214.378 168C214.378 153.088 226.466 141 241.378 141H862.975C877.887 141 889.975 153.088 889.975 168V596.035C889.975 597.692 888.632 599.035 886.975 599.035H217.378C215.721 599.035 214.378 597.692 214.378 596.035V168Z" fill="#E2E8F0" stroke="#CBD5E0" stroke-width="2"/>
<path d="M217.53 166.152C217.53 154.002 227.38 144.152 239.53 144.152H864.823C876.974 144.152 886.823 154.002 886.823 166.152V582.597H217.53V166.152Z" fill="#E2E8F0"/>
<rect x="230.816" y="165.742" width="639.399" height="398.587" fill="white"/>
<path d="M433.861 375.901V358.991H431.236V375.901H433.861ZM436.673 375.901H439.205V368.717C439.205 366.807 440.353 365.542 442.134 365.542C443.892 365.542 444.759 366.561 444.759 368.413V375.901H447.302V367.921C447.302 365.096 445.744 363.362 443.025 363.362C441.127 363.362 439.814 364.229 439.146 365.635H439.088V363.573H436.673V375.901ZM449.529 367.065C449.529 368.858 450.689 369.983 453.033 370.522L455.037 370.991C456.384 371.296 456.841 371.764 456.841 372.561C456.841 373.569 455.904 374.202 454.381 374.202C452.834 374.202 451.955 373.569 451.72 372.28H449.213C449.447 374.624 451.298 376.135 454.381 376.135C457.287 376.135 459.384 374.589 459.384 372.339C459.384 370.557 458.423 369.573 455.904 368.987L453.9 368.53C452.564 368.225 452.002 367.698 452.002 366.924C452.002 365.94 452.916 365.272 454.287 365.272C455.705 365.272 456.584 366.022 456.724 367.217H459.103C459.021 364.944 457.158 363.35 454.287 363.35C451.451 363.35 449.529 364.862 449.529 367.065ZM466.509 365.389C468.279 365.389 469.474 366.714 469.533 368.6H463.369C463.498 366.737 464.74 365.389 466.509 365.389ZM469.521 372.28C469.181 373.358 468.115 374.085 466.673 374.085C464.646 374.085 463.357 372.667 463.357 370.522V370.37H472.064V369.503C472.064 365.764 469.931 363.35 466.509 363.35C463.029 363.35 460.802 365.928 460.802 369.796C460.802 373.686 462.994 376.135 466.615 376.135C469.439 376.135 471.572 374.53 471.923 372.28H469.521ZM474.033 375.901H476.564V368.518C476.564 366.772 477.572 365.682 479.201 365.682C479.693 365.682 480.138 365.741 480.338 365.823V363.467C480.15 363.432 479.834 363.374 479.47 363.374C478.017 363.374 476.916 364.229 476.506 365.671H476.447V363.573H474.033V375.901ZM482.646 360.655V363.573H480.853V365.577H482.646V372.655C482.646 375.034 483.619 375.983 486.115 375.983C486.677 375.983 487.24 375.936 487.521 375.866V373.862C487.357 373.897 486.947 373.921 486.689 373.921C485.658 373.921 485.189 373.44 485.189 372.374V365.577H487.533V363.573H485.189V360.655H482.646ZM502.123 375.901V368.975L508.088 358.991H505.181L500.869 366.456H500.787L496.474 358.991H493.545L499.498 368.975V375.901H502.123ZM512.588 376.135C516.115 376.135 518.435 373.71 518.435 369.737C518.435 365.776 516.103 363.35 512.588 363.35C509.072 363.35 506.74 365.776 506.74 369.737C506.74 373.71 509.06 376.135 512.588 376.135ZM512.588 374.049C510.607 374.049 509.318 372.479 509.318 369.737C509.318 367.007 510.607 365.436 512.588 365.436C514.568 365.436 515.857 367.007 515.857 369.737C515.857 372.479 514.58 374.049 512.588 374.049ZM530.963 363.573H528.431V370.757C528.431 372.678 527.33 373.944 525.502 373.944C523.756 373.944 522.865 372.936 522.865 371.061V363.573H520.334V371.553C520.334 374.378 521.974 376.124 524.658 376.124C526.545 376.124 527.798 375.292 528.478 373.815H528.537V375.901H530.963V363.573ZM533.47 375.901H536.002V368.518C536.002 366.772 537.009 365.682 538.638 365.682C539.131 365.682 539.576 365.741 539.775 365.823V363.467C539.588 363.432 539.271 363.374 538.908 363.374C537.455 363.374 536.353 364.229 535.943 365.671H535.884V363.573H533.47V375.901ZM546.525 358.991V375.901H552.49C557.529 375.901 560.494 372.76 560.494 367.417C560.494 362.085 557.517 358.991 552.49 358.991H546.525ZM549.15 361.253H552.244C555.818 361.253 557.81 363.456 557.81 367.44C557.81 371.436 555.83 373.628 552.244 373.628H549.15V361.253ZM567.853 365.389C569.623 365.389 570.818 366.714 570.877 368.6H564.713C564.841 366.737 566.084 365.389 567.853 365.389ZM570.865 372.28C570.525 373.358 569.459 374.085 568.017 374.085C565.99 374.085 564.701 372.667 564.701 370.522V370.37H573.408V369.503C573.408 365.764 571.275 363.35 567.853 363.35C564.373 363.35 562.146 365.928 562.146 369.796C562.146 373.686 564.338 376.135 567.959 376.135C570.783 376.135 572.916 374.53 573.267 372.28H570.865ZM575.154 367.065C575.154 368.858 576.314 369.983 578.658 370.522L580.662 370.991C582.009 371.296 582.466 371.764 582.466 372.561C582.466 373.569 581.529 374.202 580.006 374.202C578.459 374.202 577.58 373.569 577.345 372.28H574.838C575.072 374.624 576.923 376.135 580.006 376.135C582.912 376.135 585.009 374.589 585.009 372.339C585.009 370.557 584.048 369.573 581.529 368.987L579.525 368.53C578.189 368.225 577.627 367.698 577.627 366.924C577.627 365.94 578.541 365.272 579.912 365.272C581.33 365.272 582.209 366.022 582.349 367.217H584.728C584.646 364.944 582.783 363.35 579.912 363.35C577.076 363.35 575.154 364.862 575.154 367.065ZM587.06 375.901H589.591V363.573H587.06V375.901ZM588.326 361.581C589.134 361.581 589.779 360.924 589.779 360.128C589.779 359.319 589.134 358.674 588.326 358.674C587.517 358.674 586.861 359.319 586.861 360.128C586.861 360.924 587.517 361.581 588.326 361.581ZM597.431 373.85C595.486 373.85 594.22 372.28 594.22 369.702C594.22 367.135 595.486 365.507 597.431 365.507C599.412 365.507 600.713 367.171 600.713 369.702C600.713 372.245 599.412 373.85 597.431 373.85ZM597.455 380.542C600.97 380.542 603.244 378.62 603.244 375.678V363.573H600.783V365.682H600.736C599.986 364.253 598.556 363.374 596.81 363.374C593.646 363.374 591.631 365.811 591.631 369.69C591.631 373.534 593.658 375.948 596.752 375.948C598.509 375.948 599.963 375.069 600.654 373.733H600.701V375.76C600.701 377.448 599.529 378.573 597.548 378.573C596.107 378.573 594.982 377.893 594.619 376.862H592.076C592.392 378.995 594.548 380.542 597.455 380.542ZM605.752 375.901H608.283V368.717C608.283 366.807 609.431 365.542 611.213 365.542C612.97 365.542 613.838 366.561 613.838 368.413V375.901H616.381V367.921C616.381 365.096 614.822 363.362 612.103 363.362C610.205 363.362 608.892 364.229 608.224 365.635H608.166V363.573H605.752V375.901ZM637.943 375.901V358.991H635.318V366.139H626.634V358.991H624.009V375.901H626.634V368.413H635.318V375.901H637.943ZM645.9 365.389C647.67 365.389 648.865 366.714 648.923 368.6H642.759C642.888 366.737 644.131 365.389 645.9 365.389ZM648.912 372.28C648.572 373.358 647.506 374.085 646.064 374.085C644.037 374.085 642.748 372.667 642.748 370.522V370.37H651.455V369.503C651.455 365.764 649.322 363.35 645.9 363.35C642.42 363.35 640.193 365.928 640.193 369.796C640.193 373.686 642.384 376.135 646.006 376.135C648.83 376.135 650.963 374.53 651.314 372.28H648.912ZM653.423 375.901H655.955V368.518C655.955 366.772 656.963 365.682 658.591 365.682C659.084 365.682 659.529 365.741 659.728 365.823V363.467C659.541 363.432 659.224 363.374 658.861 363.374C657.408 363.374 656.306 364.229 655.896 365.671H655.838V363.573H653.423V375.901ZM665.916 365.389C667.685 365.389 668.881 366.714 668.939 368.6H662.775C662.904 366.737 664.146 365.389 665.916 365.389ZM668.927 372.28C668.588 373.358 667.521 374.085 666.08 374.085C664.052 374.085 662.763 372.667 662.763 370.522V370.37H671.47V369.503C671.47 365.764 669.338 363.35 665.916 363.35C662.435 363.35 660.209 365.928 660.209 369.796C660.209 373.686 662.4 376.135 666.021 376.135C668.845 376.135 670.978 374.53 671.33 372.28H668.927Z" fill="#2D3748"/>
<path d="M132 598.714C132 597.609 132.895 596.714 134 596.714H967.032C968.136 596.714 969.032 597.609 969.032 598.714V611.661H132V598.714Z" fill="#E2E8F0"/>
<path d="M132 598.714C132 597.609 132.895 596.714 134 596.714H967.032C968.136 596.714 969.032 597.609 969.032 598.714V611.661H132V598.714Z" fill="url(#paint4_linear)"/>
<path d="M132 611.661H969.032L958.77 613.73C932.737 618.981 906.246 621.625 879.69 621.625H220.75C191.565 621.625 162.468 618.431 133.978 612.1L132 611.661Z" fill="#E2E8F0"/>
<path d="M132 611.661H969.032L958.77 613.73C932.737 618.981 906.246 621.625 879.69 621.625H220.75C191.565 621.625 162.468 618.431 133.978 612.1L132 611.661Z" fill="url(#paint5_linear)"/>
<path fill-rule="evenodd" clip-rule="evenodd" d="M481.621 596.714C482.048 603.206 487.449 608.339 494.049 608.339H607.813C614.413 608.339 619.814 603.206 620.241 596.714H481.621Z" fill="#E2E8F0"/>
<path fill-rule="evenodd" clip-rule="evenodd" d="M481.621 596.714C482.048 603.206 487.449 608.339 494.049 608.339H607.813C614.413 608.339 619.814 603.206 620.241 596.714H481.621Z" fill="url(#paint6_linear)"/>
<defs>
<filter id="filter0_f" x="131.18" y="578.456" width="839.502" height="96.3038" filterUnits="userSpaceOnUse" color-interpolation-filters="sRGB">
<feFlood flood-opacity="0" result="BackgroundImageFix"/>
<feBlend mode="normal" in="SourceGraphic" in2="BackgroundImageFix" result="shape"/>
<feGaussianBlur stdDeviation="22" result="effect1_foregroundBlur"/>
</filter>
<linearGradient id="paint0_linear" x1="129.015" y1="398.751" x2="129.376" y2="410.082" gradientUnits="userSpaceOnUse">
<stop stop-color="#FD749B"/>
<stop offset="1" stop-color="#281AC8"/>
</linearGradient>
<linearGradient id="paint1_linear" x1="117.819" y1="398.751" x2="118.18" y2="410.082" gradientUnits="userSpaceOnUse">
<stop stop-color="#FD749B"/>
<stop offset="1" stop-color="#281AC8"/>
</linearGradient>
<linearGradient id="paint2_linear" x1="106.627" y1="398.751" x2="106.988" y2="410.082" gradientUnits="userSpaceOnUse">
<stop stop-color="#FD749B"/>
<stop offset="1" stop-color="#281AC8"/>
</linearGradient>
<linearGradient id="paint3_linear" x1="182.88" y1="60.2831" x2="183.146" y2="87.5275" gradientUnits="userSpaceOnUse">
<stop stop-color="#FD749B"/>
<stop offset="1" stop-color="#281AC8"/>
</linearGradient>
<linearGradient id="paint4_linear" x1="132" y1="604.187" x2="969.032" y2="604.187" gradientUnits="userSpaceOnUse">
<stop stop-color="#B7C2D0"/>
<stop offset="0.0295345" stop-color="#CAD4DB"/>
<stop offset="0.0625" stop-color="#BECCDE"/>
<stop offset="0.133609" stop-color="#B7C2D0"/>
<stop offset="0.865967" stop-color="#B7C2D0"/>
<stop offset="0.941937" stop-color="#BECCDE"/>
<stop offset="0.971275" stop-color="#CAD4DB"/>
<stop offset="0.996436" stop-color="#B7C2D0"/>
</linearGradient>
<linearGradient id="paint5_linear" x1="550.516" y1="611.661" x2="550.516" y2="621.625" gradientUnits="userSpaceOnUse">
<stop stop-color="#D1DBE9"/>
<stop offset="1" stop-color="#AAB5C6"/>
</linearGradient>
<linearGradient id="paint6_linear" x1="495.295" y1="603.772" x2="609.058" y2="603.772" gradientUnits="userSpaceOnUse">
<stop stop-color="#CFD9E7"/>
<stop offset="0.317518" stop-color="#CFD9E7" stop-opacity="0"/>
<stop offset="0.660584" stop-color="#CFD9E7" stop-opacity="0"/>
<stop offset="1" stop-color="#CFD9E7"/>
</linearGradient>
</defs>
</svg>
